<mxfile host="Electron" agent="Mozilla/5.0 (Windows NT 10.0; Win64; x64) AppleWebKit/537.36 (KHTML, like Gecko) draw.io/24.7.17 Chrome/128.0.6613.36 Electron/32.0.1 Safari/537.36" version="24.7.17">
  <diagram id="C5RBs43oDa-KdzZeNtuy" name="Page-1">
    <mxGraphModel dx="1728" dy="998" grid="1" gridSize="10" guides="1" tooltips="1" connect="1" arrows="1" fold="1" page="1" pageScale="1" pageWidth="827" pageHeight="1169" math="0" shadow="0">
      <root>
        <mxCell id="WIyWlLk6GJQsqaUBKTNV-0" />
        <mxCell id="WIyWlLk6GJQsqaUBKTNV-1" parent="WIyWlLk6GJQsqaUBKTNV-0" />
        <mxCell id="onjA7cG4MH8evi2YhJo6-5" value="" style="rounded=0;whiteSpace=wrap;html=1;fillColor=none;fontColor=#ffffff;strokeColor=#005700;" vertex="1" parent="WIyWlLk6GJQsqaUBKTNV-1">
          <mxGeometry x="250" y="60" width="260" height="190" as="geometry" />
        </mxCell>
        <mxCell id="onjA7cG4MH8evi2YhJo6-4" style="edgeStyle=orthogonalEdgeStyle;rounded=0;orthogonalLoop=1;jettySize=auto;html=1;exitX=0.5;exitY=1;exitDx=0;exitDy=0;entryX=0.5;entryY=0;entryDx=0;entryDy=0;" edge="1" parent="WIyWlLk6GJQsqaUBKTNV-1" source="onjA7cG4MH8evi2YhJo6-0" target="onjA7cG4MH8evi2YhJo6-2">
          <mxGeometry relative="1" as="geometry" />
        </mxCell>
        <mxCell id="onjA7cG4MH8evi2YhJo6-0" value="Tauri application as the core of the main thread." style="rounded=1;whiteSpace=wrap;html=1;fontSize=12;glass=0;strokeWidth=1;shadow=0;" vertex="1" parent="WIyWlLk6GJQsqaUBKTNV-1">
          <mxGeometry x="320" y="80" width="120" height="50" as="geometry" />
        </mxCell>
        <mxCell id="onjA7cG4MH8evi2YhJo6-1" value="Sanctum API high level overview" style="text;html=1;align=center;verticalAlign=middle;whiteSpace=wrap;rounded=0;fillColor=#a20025;fontColor=#ffffff;strokeColor=#6F0000;" vertex="1" parent="WIyWlLk6GJQsqaUBKTNV-1">
          <mxGeometry x="50" y="10" width="140" height="30" as="geometry" />
        </mxCell>
        <mxCell id="onjA7cG4MH8evi2YhJo6-12" style="edgeStyle=orthogonalEdgeStyle;rounded=0;orthogonalLoop=1;jettySize=auto;html=1;exitX=0.5;exitY=1;exitDx=0;exitDy=0;entryX=0.5;entryY=0;entryDx=0;entryDy=0;" edge="1" parent="WIyWlLk6GJQsqaUBKTNV-1" source="onjA7cG4MH8evi2YhJo6-2" target="onjA7cG4MH8evi2YhJo6-11">
          <mxGeometry relative="1" as="geometry" />
        </mxCell>
        <mxCell id="onjA7cG4MH8evi2YhJo6-2" value="um_engine = singleton public interface for the usermode engine" style="shape=hexagon;perimeter=hexagonPerimeter2;whiteSpace=wrap;html=1;fixedSize=1;" vertex="1" parent="WIyWlLk6GJQsqaUBKTNV-1">
          <mxGeometry x="270" y="150" width="220" height="80" as="geometry" />
        </mxCell>
        <mxCell id="onjA7cG4MH8evi2YhJo6-6" value="Tauri" style="text;html=1;align=center;verticalAlign=middle;whiteSpace=wrap;rounded=0;fillColor=#008a00;fontColor=#ffffff;strokeColor=#005700;" vertex="1" parent="WIyWlLk6GJQsqaUBKTNV-1">
          <mxGeometry x="250" y="30" width="60" height="30" as="geometry" />
        </mxCell>
        <mxCell id="onjA7cG4MH8evi2YhJo6-8" value="" style="rounded=1;whiteSpace=wrap;html=1;fillColor=none;fontColor=#ffffff;strokeColor=#005700;" vertex="1" parent="WIyWlLk6GJQsqaUBKTNV-1">
          <mxGeometry x="70" y="320" width="620" height="360" as="geometry" />
        </mxCell>
        <mxCell id="onjA7cG4MH8evi2YhJo6-10" value="um_engine module" style="text;html=1;align=center;verticalAlign=middle;whiteSpace=wrap;rounded=0;fillColor=#008a00;fontColor=#ffffff;strokeColor=#005700;" vertex="1" parent="WIyWlLk6GJQsqaUBKTNV-1">
          <mxGeometry x="150" y="290" width="120" height="30" as="geometry" />
        </mxCell>
        <mxCell id="onjA7cG4MH8evi2YhJo6-15" style="edgeStyle=orthogonalEdgeStyle;rounded=0;orthogonalLoop=1;jettySize=auto;html=1;exitX=0.25;exitY=1;exitDx=0;exitDy=0;entryX=0.5;entryY=0;entryDx=0;entryDy=0;" edge="1" parent="WIyWlLk6GJQsqaUBKTNV-1" source="onjA7cG4MH8evi2YhJo6-11" target="onjA7cG4MH8evi2YhJo6-13">
          <mxGeometry relative="1" as="geometry" />
        </mxCell>
        <mxCell id="onjA7cG4MH8evi2YhJo6-16" style="edgeStyle=orthogonalEdgeStyle;rounded=0;orthogonalLoop=1;jettySize=auto;html=1;exitX=0.75;exitY=1;exitDx=0;exitDy=0;entryX=0.5;entryY=0;entryDx=0;entryDy=0;" edge="1" parent="WIyWlLk6GJQsqaUBKTNV-1" source="onjA7cG4MH8evi2YhJo6-11" target="onjA7cG4MH8evi2YhJo6-14">
          <mxGeometry relative="1" as="geometry" />
        </mxCell>
        <mxCell id="onjA7cG4MH8evi2YhJo6-11" value="UmEngine (API interface)" style="rounded=0;whiteSpace=wrap;html=1;" vertex="1" parent="WIyWlLk6GJQsqaUBKTNV-1">
          <mxGeometry x="320" y="330" width="120" height="60" as="geometry" />
        </mxCell>
        <mxCell id="onjA7cG4MH8evi2YhJo6-20" style="edgeStyle=orthogonalEdgeStyle;rounded=0;orthogonalLoop=1;jettySize=auto;html=1;exitX=0.5;exitY=1;exitDx=0;exitDy=0;entryX=0.5;entryY=0;entryDx=0;entryDy=0;" edge="1" parent="WIyWlLk6GJQsqaUBKTNV-1" source="onjA7cG4MH8evi2YhJo6-13" target="onjA7cG4MH8evi2YhJo6-17">
          <mxGeometry relative="1" as="geometry" />
        </mxCell>
        <mxCell id="onjA7cG4MH8evi2YhJo6-13" value="Scanner API&#39;s:&lt;div&gt;&lt;font style=&quot;font-size: 10px;&quot;&gt;scanner_start_scan&lt;/font&gt;&lt;br&gt;&lt;/div&gt;" style="rounded=0;whiteSpace=wrap;html=1;align=left;" vertex="1" parent="WIyWlLk6GJQsqaUBKTNV-1">
          <mxGeometry x="120" y="430" width="120" height="60" as="geometry" />
        </mxCell>
        <mxCell id="onjA7cG4MH8evi2YhJo6-19" style="edgeStyle=orthogonalEdgeStyle;rounded=0;orthogonalLoop=1;jettySize=auto;html=1;exitX=0.5;exitY=1;exitDx=0;exitDy=0;entryX=0.5;entryY=0;entryDx=0;entryDy=0;" edge="1" parent="WIyWlLk6GJQsqaUBKTNV-1" source="onjA7cG4MH8evi2YhJo6-14" target="onjA7cG4MH8evi2YhJo6-18">
          <mxGeometry relative="1" as="geometry" />
        </mxCell>
        <mxCell id="onjA7cG4MH8evi2YhJo6-14" value="Driver API&#39;s:&lt;div&gt;&lt;font style=&quot;font-size: 10px;&quot;&gt;tbc&lt;/font&gt;&lt;br&gt;&lt;/div&gt;" style="rounded=0;whiteSpace=wrap;html=1;align=left;" vertex="1" parent="WIyWlLk6GJQsqaUBKTNV-1">
          <mxGeometry x="510" y="430" width="120" height="60" as="geometry" />
        </mxCell>
        <mxCell id="onjA7cG4MH8evi2YhJo6-17" value="&lt;div&gt;filescanner.rs&lt;/div&gt;" style="rounded=0;whiteSpace=wrap;html=1;align=center;" vertex="1" parent="WIyWlLk6GJQsqaUBKTNV-1">
          <mxGeometry x="120" y="525" width="120" height="60" as="geometry" />
        </mxCell>
        <mxCell id="onjA7cG4MH8evi2YhJo6-25" style="edgeStyle=orthogonalEdgeStyle;rounded=0;orthogonalLoop=1;jettySize=auto;html=1;exitX=0.5;exitY=1;exitDx=0;exitDy=0;entryX=0.5;entryY=0;entryDx=0;entryDy=0;" edge="1" parent="WIyWlLk6GJQsqaUBKTNV-1" source="onjA7cG4MH8evi2YhJo6-18" target="onjA7cG4MH8evi2YhJo6-24">
          <mxGeometry relative="1" as="geometry" />
        </mxCell>
        <mxCell id="onjA7cG4MH8evi2YhJo6-18" value="&lt;div&gt;driver_manager.rs&lt;/div&gt;" style="rounded=0;whiteSpace=wrap;html=1;align=center;" vertex="1" parent="WIyWlLk6GJQsqaUBKTNV-1">
          <mxGeometry x="510" y="525" width="120" height="60" as="geometry" />
        </mxCell>
        <mxCell id="onjA7cG4MH8evi2YhJo6-23" value="Mutexes, atomics, etc managed interally within um_engine so the interface can be used as a singleton." style="text;html=1;align=center;verticalAlign=middle;whiteSpace=wrap;rounded=0;" vertex="1" parent="WIyWlLk6GJQsqaUBKTNV-1">
          <mxGeometry x="100" y="340" width="210" height="50" as="geometry" />
        </mxCell>
        <mxCell id="onjA7cG4MH8evi2YhJo6-32" style="edgeStyle=orthogonalEdgeStyle;rounded=0;orthogonalLoop=1;jettySize=auto;html=1;exitX=0.5;exitY=1;exitDx=0;exitDy=0;" edge="1" parent="WIyWlLk6GJQsqaUBKTNV-1" source="onjA7cG4MH8evi2YhJo6-24" target="onjA7cG4MH8evi2YhJo6-31">
          <mxGeometry relative="1" as="geometry" />
        </mxCell>
        <mxCell id="onjA7cG4MH8evi2YhJo6-24" value="&lt;div&gt;Windows API&lt;/div&gt;" style="rounded=0;whiteSpace=wrap;html=1;align=center;" vertex="1" parent="WIyWlLk6GJQsqaUBKTNV-1">
          <mxGeometry x="510" y="600" width="120" height="60" as="geometry" />
        </mxCell>
        <mxCell id="onjA7cG4MH8evi2YhJo6-27" value="" style="endArrow=none;dashed=1;html=1;rounded=0;" edge="1" parent="WIyWlLk6GJQsqaUBKTNV-1">
          <mxGeometry width="50" height="50" relative="1" as="geometry">
            <mxPoint x="70" y="710" as="sourcePoint" />
            <mxPoint x="690" y="710" as="targetPoint" />
          </mxGeometry>
        </mxCell>
        <mxCell id="onjA7cG4MH8evi2YhJo6-29" value="Userland" style="text;strokeColor=none;fillColor=none;html=1;fontSize=24;fontStyle=1;verticalAlign=middle;align=center;" vertex="1" parent="WIyWlLk6GJQsqaUBKTNV-1">
          <mxGeometry x="710" y="650" width="100" height="40" as="geometry" />
        </mxCell>
        <mxCell id="onjA7cG4MH8evi2YhJo6-30" value="Kernel" style="text;strokeColor=none;fillColor=none;html=1;fontSize=24;fontStyle=1;verticalAlign=middle;align=center;" vertex="1" parent="WIyWlLk6GJQsqaUBKTNV-1">
          <mxGeometry x="710" y="720" width="100" height="40" as="geometry" />
        </mxCell>
        <mxCell id="onjA7cG4MH8evi2YhJo6-31" value="&lt;div&gt;Sanctum Driver&lt;/div&gt;" style="rounded=0;whiteSpace=wrap;html=1;align=center;" vertex="1" parent="WIyWlLk6GJQsqaUBKTNV-1">
          <mxGeometry x="510" y="730" width="120" height="60" as="geometry" />
        </mxCell>
      </root>
    </mxGraphModel>
  </diagram>
</mxfile>
